{"title":"Mai.Dire.Grande.Fratello.Show.2009.1x05.DVB-TRip.MP3.iTA.XviD.fi","uid":5143839,"size":738785280,"categoryP":"video","categoryS":"tv_shows","magnet":"?xt=urn:btih:3eb2bcffa152a572a3c43d1f99c81469b8748837&amp;dn=Mai.Dire.Grande.Fratello.Show.2009.1x05.DVB-TRip.MP3.iTA.XviD.fi&amp;tr=udp%3A%2F%2Ftracker.openbittorrent.com%3A80&amp;tr=udp%3A%2F%2Fopen.demonii.com%3A1337&amp;tr=udp%3A%2F%2Ftracker.coppersurfer.tk%3A6969&amp;tr=udp%3A%2F%2Fexodus.desync.com%3A6969","seeders":0,"leechers":1,"uploader":null,"files":1,"time":1257103536,"description":"Taken from http://forum.tntvillage.scambioetico.org/tntforum/index.php?showtopic=164064\n\nGeneral\nComplete name                    : C:Mai.Dire.Grande.Fratello.Show.2009.1x05.DVB-TRip.MP3.iTA.XviD.firefox.avi\nFormat                           : AVI\nFormat/Info                      : Audio Video Interleave\nFile size                        : 705 MiB\nDuration                         : 1h 28mn\nOverall bit rate                 : 1 119 Kbps\nDirector                         : Done with AutoMKV! 0.98.4 http://forum.doom9.org/showthread.php?t=140178\nWriting application              : VirtualDubMod 1.5.10.2 (build 2542/release)\nWriting library                  : VirtualDubMod build 2542/release\n\nVideo\nID                               : 0\nFormat                           : MPEG-4 Visual\nFormat profile                   : AdvancedSimple@L5\nFormat settings, BVOP            : Yes\nFormat settings, QPel            : Yes\nFormat settings, GMC             : No warppoints\nFormat settings, Matrix          : Custom\nCodec ID                         : XVID\nCodec ID/Hint                    : XviD\nDuration                         : 1h 28mn\nBit rate                         : 990 Kbps\nWidth                            : 640 pixels\nHeight                           : 488 pixels\nDisplay aspect ratio             : 4:3\nFrame rate                       : 25.000 fps\nResolution                       : 24 bits\nColorimetry                      : 4:2:0\nScan type                        : Progressive\nBits/(Pixel*Frame)               : 0.127\nStream size                      : 623 MiB (88%)\nWriting library                  : XviD 1.2.1 (UTC 2008-12-04)\n\nAudio\nID                               : 1\nFormat                           : MPEG Audio\nFormat version                   : Version 1\nFormat profile                   : Layer 3\nCodec ID                         : 55\nCodec ID/Hint                    : MP3\nDuration                         : 1h 28mn\nBit rate mode                    : Variable\nBit rate                         : 117 Kbps\nNominal bit rate                 : 128 Kbps\nChannel(s)                       : 2 channels\nSampling rate                    : 48.0 KHz\nResolution                       : 16 bits\nStream size                      : 73.4 MiB (10%)\nAlignment                        : Aligned on interleaves\nInterleave, duration             : 24 ms (0.60 video frame)\nInterleave, preload duration     : 497 ms\nWriting library                  : LAME3.98r\nEncoding settings                : -m j -V 4 -q 3 -lowpass 17 --abr 128\n\n","torrent":{"xt":"urn:btih:3eb2bcffa152a572a3c43d1f99c81469b8748837","amp;dn":"Mai.Dire.Grande.Fratello.Show.2009.1x05.DVB-TRip.MP3.iTA.XviD.fi","amp;tr":["udp%3A%2F%2Ftracker.openbittorrent.com%3A80","udp%3A%2F%2Fopen.demonii.com%3A1337","udp%3A%2F%2Ftracker.coppersurfer.tk%3A6969","udp%3A%2F%2Fexodus.desync.com%3A6969"],"infoHash":"3eb2bcffa152a572a3c43d1f99c81469b8748837","infoHashBuffer":{"type":"Buffer","data":[62,178,188,255,161,82,165,114,163,196,61,31,153,200,20,105,184,116,136,55]},"announce":[],"urlList":[]}}